<?xml version="1.0" encoding="utf-8"?>
<!-- Generator: Adobe Illustrator 28.3.0, SVG Export Plug-In . SVG Version: 6.00 Build 0)  -->
<svg version="1.1" id="Layer_1" xmlns:serif="http://www.serif.com/"
	 xmlns="http://www.w3.org/2000/svg" xmlns:xlink="http://www.w3.org/1999/xlink" x="0px" y="0px" viewBox="0 0 456 456"
	 style="enable-background:new 0 0 456 456;" xml:space="preserve">
<style type="text/css">
	.st0{fill-rule:evenodd;clip-rule:evenodd;fill:#FFFFFF;}
</style>
<path class="st0" d="M114.4,285.3l-11.5,0.1H72.8l28-72.8c0,0,7-14.8-8.1-15.7L66.1,197c0,0-6.5,0.6-3.6-5.3l8-21.1l255.9,0.2
	c0,0,12.3-0.2,16.1,9l48.9,95.1c0,0,2.8,5.9,2.7,8.5c-0.1,1.6-3.3,1.7-6.8,1.7l-91.4,0.1c0,0-3.2,0.1-3.7-1c-0.4-1,0.3-3.2,1.2-5.2
	c3.7-8.8,10-25.9,10-25.9h26.1c0,0,8.3,0.6,2.4-7.9l-24.4-44c0,0-3.3-5.1-11-4.5l-129,0.2c0,0-14.2-2-20.1,14.5l-22.3,58.1l-4,10.6
	C121.3,280.2,120,284.9,114.4,285.3L114.4,285.3z"/>
<path class="st0" d="M169.8,201.9h49.7c0,0-5.2,5.7,4.3,9.3l33,14.1c0,0,14,5,10.9,18.3L255.8,275c0,0-5.5,10.4-18.3,10.4
	c-12.9,0-106.7,0-106.7,0s-2.9,0-3.2-0.7c-0.5-0.8,1.5-6.2,1.8-6.8l9-23.4l77-0.1c0,0,3.1-0.1,4.1-2.1c0.5-1.1,1.6-2.9-1-4.6
	l-47.2-22c0,0-8.4-4.1-4.9-13.9L169.8,201.9L169.8,201.9z"/>
<path class="st0" d="M266.4,201.9l-5,13c0,0-2.5,4.5,1.4,6.8c3.9,2.3,10.6,7.7,11.6,14.7c0,0,1.4,4.7-1.6,12c0,0-7.6,22.4-9.9,27.1
	c-1.5,3-1.4,4.6-9.1,9.8l30.5,0l25.8-66.8l-7.8-13c0,0-1.7-4.2-8.7-3.7C293.6,201.9,266.4,201.9,266.4,201.9z"/>
</svg>
